<svg width="174" height="221" viewBox="0 0 174 221" fill="none" xmlns="http://www.w3.org/2000/svg">
<path d="M121 202.5C121 204.555 119.064 207.919 112.434 211.064C106.184 214.029 97.1969 216 87 216C76.8031 216 67.8164 214.029 61.5658 211.064C54.936 207.919 53 204.555 53 202.5C53 200.445 54.936 197.081 61.5658 193.936C67.8164 190.971 76.8031 189 87 189C97.1969 189 106.184 190.971 112.434 193.936C119.064 197.081 121 200.445 121 202.5Z" stroke="#F40C34" stroke-width="10"/>
<path d="M27.251 27.2491C19.4041 35.0953 13.1794 44.4104 8.93262 54.6623C4.68581 64.9143 2.5 75.9024 2.5 86.9991C2.5 98.0959 4.68581 109.084 8.93262 119.336C13.1794 129.588 19.4041 138.903 27.251 146.749L85.2331 204.731L87.0009 206.499L88.7686 204.731L146.751 146.749C162.597 130.902 171.5 109.41 171.5 86.9991C171.5 64.5886 162.597 43.0959 146.751 27.2492C130.904 11.4026 109.411 2.5 87.0009 2.5C64.5903 2.5 43.0977 11.4025 27.251 27.2491ZM27.251 27.2491L29.0187 29.017L27.251 27.2491Z" fill="#182A2C" stroke="white" stroke-width="5"/>
<path d="M114.646 121.849V112.645V103.44H126.48V121.849H114.646Z" fill="#F40C34"/>
<path d="M47.5839 121.849V112.645V103.44H59.4184V121.849H47.5839Z" fill="#F40C34"/>
<path fill-rule="evenodd" clip-rule="evenodd" d="M57.0079 43.8304C55.7807 44.2687 53.9397 45.4083 52.844 46.3726C51.7482 47.293 50.4332 48.7395 49.9073 49.5723C49.3813 50.405 48.68 51.9391 48.2855 53.0349C47.7157 54.6129 47.5842 57.2866 47.5842 66.9733C47.5842 78.5886 47.5842 78.8954 46.7076 78.8954C46.2254 78.8954 43.9024 78.5009 41.5355 77.9749C38.1166 77.2736 37.24 77.186 36.977 77.6681C36.8455 77.9749 36.2319 80.3418 35.6621 82.9279C35.0923 85.5139 34.7416 87.7493 34.8731 87.837C35.0046 87.9685 38.0728 88.6698 41.667 89.3711C45.305 90.0724 51.3975 91.0367 55.2547 91.5626C59.1118 92.0448 65.2482 92.7023 68.8424 93.0091C72.4804 93.3159 80.8522 93.5351 87.4707 93.5351C94.0892 93.5351 102.592 93.2721 106.318 92.9652C110.044 92.6584 116.093 92.0448 119.687 91.5626C123.325 91.1243 129.11 90.2039 132.617 89.5902C136.123 88.9766 139.104 88.3191 139.279 88.1438C139.411 88.0123 139.06 85.7331 138.49 83.0594C138.38 82.5778 138.272 82.1076 138.169 81.6587C137.701 79.6156 137.335 78.0152 137.263 77.7996C137.132 77.5366 135.203 77.712 132.091 78.3256C130.732 78.5886 129.461 78.8297 128.508 79.0105C127.554 79.1913 126.919 79.3118 126.831 79.3337C126.612 79.3337 126.437 73.4603 126.393 66.272C126.261 53.8239 126.218 53.1664 125.297 51.2817C124.771 50.1859 123.456 48.4326 122.448 47.3807C121.396 46.2849 119.468 44.9261 118.153 44.3125L115.742 43.1729C60.6021 42.9976 59.1118 43.0414 57.0079 43.8304ZM59.2811 81.0081V57.0133C59.2097 56.5134 59.4096 55.5136 60.7808 55.5136H111.555C112.055 55.5136 113.055 55.8135 113.055 57.0133V81.0081C113.055 81.0081 96.6801 82.2935 86.1681 82.2935C75.6561 82.2935 59.2811 81.0081 59.2811 81.0081Z" fill="#F40C34"/>
</svg>
