<svg width="230" height="209" viewBox="0 0 230 209" fill="none" xmlns="http://www.w3.org/2000/svg">
<path d="M34.313 180.699C33.4422 180.699 33.0068 180.264 33.0068 179.393V164.371L28.2568 175.059C27.9402 175.652 27.4652 175.949 26.8319 175.949H26.2975C25.6246 175.949 25.1694 175.652 24.9319 175.059L20.1226 164.253V179.393C20.1226 179.67 20.0236 179.967 19.8257 180.284C19.6278 180.561 19.3111 180.699 18.8757 180.699H18.4007C17.4903 180.699 17.0351 180.264 17.0351 179.393V158.078C17.0351 157.721 17.1341 157.405 17.332 157.128C17.5695 156.851 17.9258 156.712 18.4007 156.712H19.2914C19.9247 156.712 20.3205 156.969 20.4788 157.484L26.5944 171.199L32.5912 157.484C32.8286 156.969 33.2443 156.712 33.838 156.712H34.788C35.3026 156.712 35.639 156.87 35.7973 157.187C35.9557 157.504 36.0348 157.801 36.0348 158.078V179.393C36.0348 179.67 35.9359 179.967 35.738 180.284C35.5401 180.561 35.2234 180.699 34.788 180.699H34.313ZM41.4059 180.699C40.9705 180.699 40.6538 180.541 40.4559 180.224C40.2976 179.908 40.2184 179.611 40.2184 179.334V158.078C40.2184 157.761 40.2976 157.464 40.4559 157.187C40.6538 156.87 40.9705 156.712 41.4059 156.712H41.8809C42.7121 156.712 43.1277 157.167 43.1277 158.078V179.334C43.1277 180.244 42.7121 180.699 41.8809 180.699H41.4059ZM60.6598 180.699C60.1056 180.699 59.69 180.442 59.4129 179.927L50.4474 163.778V179.393C50.4474 179.67 50.3287 179.967 50.0912 180.284C49.8933 180.561 49.5766 180.699 49.1412 180.699H48.7256C48.2902 180.699 47.9537 180.58 47.7162 180.343C47.4787 180.066 47.36 179.749 47.36 179.393V158.078C47.36 157.721 47.4589 157.405 47.6569 157.128C47.8944 156.851 48.2506 156.712 48.7256 156.712H49.1412C49.4579 156.712 49.6954 156.811 49.8537 157.009C50.0516 157.167 50.1704 157.286 50.2099 157.365L59.2942 173.515V158.078C59.2942 157.801 59.3733 157.504 59.5317 157.187C59.69 156.87 60.0265 156.712 60.541 156.712H61.016C61.5306 156.712 61.8671 156.87 62.0254 157.187C62.1837 157.504 62.2629 157.801 62.2629 158.078V179.393C62.2629 179.67 62.1639 179.967 61.966 180.284C61.7681 180.561 61.4514 180.699 61.016 180.699H60.6598ZM79.6089 180.699C79.2131 180.699 78.8964 180.58 78.6589 180.343C78.4214 180.066 78.3027 179.749 78.3027 179.393V170.012H69.8716V179.393C69.8716 179.67 69.7528 179.967 69.5153 180.284C69.3174 180.561 69.0007 180.699 68.5653 180.699H68.0903C67.6549 180.699 67.3185 180.58 67.081 180.343C66.8831 180.066 66.7841 179.749 66.7841 179.393V158.078C66.7841 157.721 66.8831 157.405 67.081 157.128C67.3185 156.851 67.6549 156.712 68.0903 156.712H68.5653C69.0799 156.712 69.4164 156.87 69.5747 157.187C69.7726 157.504 69.8716 157.801 69.8716 158.078V166.984H78.3027V158.078C78.3027 157.721 78.4016 157.405 78.5996 157.128C78.7975 156.851 79.1339 156.712 79.6089 156.712H80.0245C80.5391 156.712 80.8756 156.87 81.0339 157.187C81.1922 157.504 81.2714 157.801 81.2714 158.078V179.393C81.2714 179.67 81.1724 179.967 80.9745 180.284C80.7766 180.561 80.4599 180.699 80.0245 180.699H79.6089ZM100.281 180.699C99.8855 180.699 99.5886 180.561 99.3907 180.284C99.1928 180.007 99.0542 179.769 98.9751 179.571L97.3126 174.524H89.4752L87.694 179.69C87.6148 179.967 87.4565 180.204 87.219 180.402C86.9815 180.6 86.7044 180.699 86.3878 180.699H85.9721C85.4576 180.699 85.1013 180.501 84.9034 180.105C84.7055 179.71 84.6659 179.353 84.7847 179.037L91.6721 157.781C91.7512 157.622 91.87 157.405 92.0283 157.128C92.2262 156.851 92.5429 156.712 92.9783 156.712H93.7502C94.4231 156.712 94.8783 157.049 95.1158 157.721L102.003 179.037C102.122 179.353 102.082 179.71 101.884 180.105C101.686 180.501 101.33 180.699 100.816 180.699H100.281ZM93.3345 162.115C93.1366 162.828 92.8991 163.619 92.622 164.49C92.3845 165.361 92.1273 166.212 91.8502 167.043C91.6127 167.874 91.3752 168.666 91.1377 169.418C90.9002 170.17 90.7023 170.804 90.544 171.318H96.2439L93.3345 162.115Z" fill="#F40C34"/>
<path d="M114.55 180.699H110.334C108.87 180.699 107.741 180.264 106.95 179.393C106.158 178.522 105.762 177.196 105.762 175.415V161.996C105.762 160.373 106.178 159.087 107.009 158.137C107.84 157.187 108.949 156.712 110.334 156.712H114.55C115.935 156.712 117.024 157.187 117.815 158.137C118.646 159.047 119.062 160.334 119.062 161.996V163.659C119.062 164.173 118.904 164.431 118.587 164.431H118.171C117.815 164.431 117.637 164.173 117.637 163.659V161.996C117.637 160.848 117.38 159.958 116.865 159.325C116.351 158.652 115.579 158.315 114.55 158.315H110.334C109.305 158.315 108.533 158.652 108.018 159.325C107.504 159.958 107.247 160.848 107.247 161.996V175.356C107.247 176.503 107.504 177.414 108.018 178.087C108.533 178.76 109.305 179.096 110.334 179.096H114.55C115.579 179.096 116.351 178.76 116.865 178.087C117.38 177.414 117.637 176.503 117.637 175.356V173.693C117.637 173.258 117.815 173.04 118.171 173.04H118.587C118.904 173.04 119.062 173.258 119.062 173.693V175.415C119.062 178.938 117.558 180.699 114.55 180.699ZM138.678 180.699H138.144C137.906 180.699 137.728 180.482 137.609 180.046L135.769 174.109H126.803L124.785 180.165C124.666 180.521 124.488 180.699 124.25 180.699H123.835C123.676 180.699 123.538 180.62 123.419 180.462C123.34 180.303 123.34 180.145 123.419 179.987L130.247 157.425C130.366 157.306 130.425 157.187 130.425 157.068C130.465 156.989 130.504 156.93 130.544 156.89C130.663 156.771 130.762 156.712 130.841 156.712H131.613C131.89 156.712 132.088 156.89 132.206 157.246L139.094 179.987C139.173 180.145 139.153 180.303 139.034 180.462C138.955 180.62 138.837 180.699 138.678 180.699ZM131.138 158.731C130.386 161.7 129.673 164.292 129 166.509C128.367 168.725 127.833 170.665 127.397 172.327H135.116L131.138 158.731ZM156.331 180.165V180.462C156.331 180.62 156.212 180.699 155.975 180.699H155.322C155.084 180.699 154.906 180.58 154.787 180.343L150.928 170.902H145.169V180.105C145.169 180.501 144.971 180.699 144.575 180.699H144.219C143.823 180.699 143.625 180.501 143.625 180.105V157.306C143.625 156.91 143.823 156.712 144.219 156.712H151.343C152.808 156.712 153.936 157.148 154.728 158.018C155.519 158.889 155.915 160.215 155.915 161.996V165.559C155.915 166.825 155.658 167.874 155.143 168.706C154.629 169.537 153.718 170.249 152.412 170.843L156.272 179.868C156.272 179.987 156.291 180.086 156.331 180.165ZM154.49 161.996C154.49 160.848 154.213 159.938 153.659 159.265C153.144 158.592 152.373 158.256 151.343 158.256H145.169V169.181H151.343C152.373 169.181 153.144 168.864 153.659 168.231C154.213 167.597 154.49 166.707 154.49 165.559V161.996ZM169.973 180.699H165.935C164.55 180.699 163.441 180.264 162.61 179.393C161.818 178.522 161.423 177.196 161.423 175.415V161.996C161.423 160.334 161.818 159.047 162.61 158.137C163.441 157.187 164.55 156.712 165.935 156.712H169.973C171.358 156.712 172.466 157.187 173.297 158.137C174.129 159.087 174.544 160.373 174.544 161.996V175.415C174.544 177.196 174.149 178.522 173.357 179.393C172.565 180.264 171.437 180.699 169.973 180.699ZM173.06 161.996C173.06 160.848 172.803 159.958 172.288 159.325C171.774 158.652 171.002 158.315 169.973 158.315H165.935C164.906 158.315 164.134 158.652 163.62 159.325C163.105 159.958 162.848 160.848 162.848 161.996V175.356C162.848 176.503 163.105 177.414 163.62 178.087C164.134 178.76 164.906 179.096 165.935 179.096H169.973C171.002 179.096 171.774 178.76 172.288 178.087C172.803 177.414 173.06 176.503 173.06 175.356V161.996ZM193.216 180.699H192.86C192.702 180.699 192.504 180.561 192.266 180.284L181.876 160.275V180.105C181.876 180.224 181.816 180.363 181.698 180.521C181.618 180.64 181.5 180.699 181.341 180.699H180.926C180.53 180.699 180.332 180.501 180.332 180.105V157.365C180.332 156.93 180.53 156.712 180.926 156.712H181.341C181.539 156.712 181.638 156.752 181.638 156.831L192.266 176.959V157.365C192.266 156.93 192.424 156.712 192.741 156.712H193.216C193.533 156.712 193.691 156.93 193.691 157.365V180.105C193.691 180.501 193.533 180.699 193.216 180.699ZM213.65 180.699H213.115C212.878 180.699 212.7 180.482 212.581 180.046L210.74 174.109H201.775L199.756 180.165C199.637 180.521 199.459 180.699 199.222 180.699H198.806C198.648 180.699 198.509 180.62 198.39 180.462C198.311 180.303 198.311 180.145 198.39 179.987L205.218 157.425C205.337 157.306 205.397 157.187 205.397 157.068C205.436 156.989 205.476 156.93 205.515 156.89C205.634 156.771 205.733 156.712 205.812 156.712H206.584C206.861 156.712 207.059 156.89 207.178 157.246L214.065 179.987C214.144 180.145 214.125 180.303 214.006 180.462C213.927 180.62 213.808 180.699 213.65 180.699ZM206.109 158.731C205.357 161.7 204.645 164.292 203.972 166.509C203.338 168.725 202.804 170.665 202.369 172.327H210.087L206.109 158.731Z" fill="white"/>
<path d="M83.3353 205.072C82.4909 205.072 81.7476 204.874 81.1055 204.479C80.4722 204.083 79.9752 203.529 79.6145 202.816C79.2627 202.104 79.0868 201.272 79.0868 200.322C79.0868 199.364 79.2627 198.528 79.6145 197.816C79.9752 197.103 80.4722 196.549 81.1055 196.153C81.7476 195.757 82.4909 195.559 83.3353 195.559C84.1973 195.559 84.9494 195.757 85.5915 196.153C86.2337 196.549 86.7306 197.103 87.0825 197.816C87.4431 198.528 87.6234 199.364 87.6234 200.322C87.6234 201.272 87.4431 202.104 87.0825 202.816C86.7218 203.529 86.2205 204.083 85.5783 204.479C84.9362 204.874 84.1885 205.072 83.3353 205.072ZM83.3353 203.964C83.9774 203.964 84.5272 203.815 84.9846 203.515C85.4508 203.216 85.8114 202.794 86.0665 202.249C86.3216 201.703 86.4492 201.061 86.4492 200.322C86.4492 199.575 86.3216 198.928 86.0665 198.383C85.8114 197.838 85.4508 197.415 84.9846 197.116C84.5272 196.817 83.9774 196.668 83.3353 196.668C82.7108 196.668 82.1654 196.817 81.6992 197.116C81.233 197.407 80.8724 197.824 80.6173 198.37C80.371 198.915 80.2479 199.566 80.2479 200.322C80.2479 201.07 80.371 201.717 80.6173 202.262C80.8724 202.807 81.233 203.23 81.6992 203.529C82.1654 203.819 82.7108 203.964 83.3353 203.964ZM89.9067 204.914V198.409H91.0282V199.795L90.7643 199.887C90.8874 199.553 91.0546 199.271 91.2657 199.043C91.4768 198.805 91.7319 198.625 92.0309 198.502C92.33 198.37 92.6599 198.304 93.0205 198.304C93.733 198.304 94.2916 198.515 94.6962 198.937C95.1008 199.35 95.3031 199.966 95.3031 200.784V204.914H94.1816V201.193C94.1816 200.534 94.0585 200.05 93.8122 199.742C93.5747 199.425 93.2096 199.267 92.717 199.267C92.3564 199.267 92.0485 199.35 91.7934 199.518C91.5471 199.685 91.358 199.949 91.2261 200.309C91.0941 200.661 91.0282 201.114 91.0282 201.668V204.914H89.9067ZM104.732 205.02C104.125 205.02 103.58 204.879 103.096 204.597C102.621 204.307 102.247 203.907 101.975 203.397C101.702 202.887 101.566 202.306 101.566 201.655C101.566 201.004 101.698 200.428 101.961 199.927C102.234 199.416 102.608 199.021 103.083 198.739C103.567 198.449 104.117 198.304 104.732 198.304C105.348 198.304 105.889 198.449 106.355 198.739C106.83 199.021 107.204 199.416 107.477 199.927C107.749 200.428 107.886 201.004 107.886 201.655C107.886 202.306 107.749 202.887 107.477 203.397C107.204 203.898 106.83 204.294 106.355 204.584C105.88 204.874 105.339 205.02 104.732 205.02ZM104.732 204.03C105.146 204.03 105.502 203.933 105.801 203.74C106.109 203.537 106.346 203.26 106.513 202.909C106.681 202.548 106.764 202.13 106.764 201.655C106.764 201.171 106.681 200.753 106.513 200.402C106.346 200.041 106.109 199.764 105.801 199.57C105.502 199.377 105.146 199.28 104.732 199.28C104.31 199.28 103.945 199.381 103.637 199.584C103.329 199.777 103.092 200.05 102.925 200.402C102.758 200.753 102.674 201.171 102.674 201.655C102.674 202.13 102.758 202.548 102.925 202.909C103.092 203.26 103.329 203.537 103.637 203.74C103.945 203.933 104.31 204.03 104.732 204.03ZM112.334 205.02C111.868 205.02 111.463 204.927 111.12 204.743C110.777 204.549 110.513 204.268 110.329 203.898C110.153 203.529 110.065 203.071 110.065 202.526V198.409H111.173V202.13C111.173 202.561 111.226 202.922 111.331 203.212C111.446 203.493 111.613 203.705 111.833 203.845C112.053 203.977 112.325 204.043 112.651 204.043C113.011 204.043 113.315 203.96 113.561 203.793C113.816 203.617 114.01 203.353 114.142 203.001C114.274 202.649 114.34 202.196 114.34 201.642V198.409H115.448V204.914H114.34V203.529H114.617C114.432 204.012 114.137 204.382 113.733 204.637C113.328 204.892 112.862 205.02 112.334 205.02ZM118.019 204.914V198.409H119.141V200.151L118.85 200.217C118.912 199.83 119.057 199.496 119.286 199.214C119.523 198.924 119.796 198.7 120.104 198.541C120.421 198.383 120.728 198.304 121.027 198.304C121.23 198.304 121.423 198.326 121.608 198.37C121.793 198.414 121.982 198.488 122.175 198.594L121.621 199.597C121.516 199.544 121.388 199.5 121.239 199.465C121.098 199.43 120.961 199.412 120.83 199.412C120.618 199.412 120.407 199.452 120.196 199.531C119.994 199.61 119.809 199.733 119.642 199.9C119.475 200.067 119.347 200.292 119.259 200.573C119.224 200.696 119.193 200.859 119.167 201.061C119.149 201.255 119.141 201.523 119.141 201.866V204.914H118.019ZM129.485 204.914L127.558 198.409H128.746L130.065 203.225L131.622 198.409H132.612L134.169 203.199L135.501 198.409H136.689L134.749 204.914H133.72L132.124 199.966L130.527 204.914H129.485ZM142.944 204.914L142.864 203.608V200.837C142.864 200.336 142.724 199.949 142.442 199.676C142.17 199.403 141.761 199.267 141.215 199.267C140.863 199.267 140.533 199.342 140.226 199.491C139.918 199.632 139.619 199.874 139.328 200.217L138.524 199.531C138.884 199.109 139.298 198.801 139.764 198.607C140.23 198.405 140.74 198.304 141.294 198.304C142.148 198.304 142.807 198.524 143.273 198.963C143.74 199.403 143.973 200.028 143.973 200.837V204.914H142.944ZM140.793 205.02C140.3 205.02 139.869 204.936 139.5 204.769C139.139 204.593 138.858 204.351 138.655 204.043C138.462 203.735 138.365 203.379 138.365 202.975C138.365 202.614 138.436 202.31 138.576 202.064C138.726 201.809 138.915 201.611 139.144 201.47C139.372 201.321 139.632 201.22 139.922 201.167C140.221 201.105 140.533 201.075 140.859 201.075H142.97V201.919H141.017C140.824 201.919 140.621 201.937 140.41 201.972C140.199 202.007 140.014 202.082 139.856 202.196C139.742 202.284 139.649 202.394 139.579 202.526C139.517 202.658 139.487 202.812 139.487 202.988C139.487 203.331 139.614 203.603 139.869 203.806C140.124 204.008 140.467 204.109 140.898 204.109C141.259 204.109 141.585 204.026 141.875 203.859C142.174 203.691 142.411 203.463 142.587 203.172C142.772 202.873 142.864 202.539 142.864 202.17L143.326 202.645C143.273 203.111 143.133 203.524 142.904 203.885C142.675 204.246 142.381 204.527 142.02 204.729C141.668 204.923 141.259 205.02 140.793 205.02ZM146.933 207.592L148.173 204.597L145.64 198.409H146.867L148.767 203.476L150.68 198.409H151.894L148.147 207.592H146.933Z" fill="white"/>
<path d="M137.675 134.074C137.675 135.43 136.398 137.649 132.024 139.724C127.901 141.68 121.972 142.98 115.245 142.98C108.518 142.98 102.589 141.68 98.4656 139.724C94.0919 137.649 92.8147 135.43 92.8147 134.074C92.8147 132.718 94.0919 130.499 98.4656 128.425C102.589 126.468 108.518 125.168 115.245 125.168C121.972 125.168 127.901 126.468 132.024 128.425C136.398 130.499 137.675 132.718 137.675 134.074Z" stroke="#F40C34" stroke-width="6.59712"/>
<path d="M114.079 135.547L115.246 136.713L116.412 135.547L154.663 97.2953C165.117 86.841 170.991 72.6621 170.991 57.8775C170.991 43.093 165.117 28.914 154.663 18.4598C144.209 8.00559 130.03 2.13246 115.246 2.13246C100.461 2.13246 86.2821 8.00553 75.8278 18.4598C70.6511 23.636 66.5446 29.7812 63.743 36.5446C60.9413 43.3079 59.4993 50.5569 59.4993 57.8775C59.4993 65.1982 60.9413 72.4472 63.743 79.2105C66.5446 85.9739 70.6511 92.1191 75.8278 97.2953L114.079 135.547Z" fill="#182A2C" stroke="white" stroke-width="3.29856"/>
<path d="M133.483 80.8684V74.796V68.7236H141.291V80.8684H133.483Z" fill="#F40C34"/>
<path d="M89.2417 80.8684V74.796V68.7236H97.049V80.8684H89.2417Z" fill="#F40C34"/>
<path fill-rule="evenodd" clip-rule="evenodd" d="M95.4589 29.3986C94.6493 29.6878 93.4348 30.4396 92.7119 31.0758C91.989 31.683 91.1215 32.6372 90.7745 33.1866C90.4276 33.736 89.9649 34.7481 89.7047 35.471C89.3287 36.512 89.242 38.2759 89.242 44.6663C89.242 52.329 89.242 52.5315 88.6637 52.5315C88.3456 52.5315 86.813 52.2712 85.2516 51.9242C82.9961 51.4616 82.4178 51.4037 82.2443 51.7218C82.1576 51.9242 81.7527 53.4857 81.3768 55.1917C81.0009 56.8978 80.7696 58.3725 80.8563 58.4303C80.9431 58.5171 82.9672 58.9797 85.3383 59.4424C87.7384 59.905 91.7577 60.5412 94.3023 60.8882C96.8469 61.2063 100.895 61.64 103.266 61.8424C105.666 62.0448 111.189 62.1894 115.556 62.1894C119.922 62.1894 125.532 62.0159 127.989 61.8135C130.447 61.6111 134.438 61.2063 136.809 60.8882C139.209 60.599 143.026 59.9918 145.339 59.587C147.652 59.1821 149.619 58.7484 149.734 58.6327C149.821 58.546 149.59 57.0424 149.214 55.2785C149.141 54.9606 149.07 54.6502 149.002 54.3539C148.693 53.0063 148.452 51.9508 148.404 51.8086C148.317 51.6351 147.045 51.7507 144.992 52.1555C144.096 52.3291 143.257 52.4881 142.628 52.6074C141.999 52.7266 141.58 52.8062 141.522 52.8206C141.378 52.8206 141.262 48.9459 141.233 44.2036C141.146 35.9915 141.117 35.5577 140.51 34.3144C140.163 33.5915 139.296 32.4348 138.631 31.7408C137.937 31.0179 136.664 30.1215 135.797 29.7167L134.206 28.9649C97.8301 28.8492 96.8469 28.8781 95.4589 29.3986ZM96.9585 53.925V38.0953C96.9114 37.7656 97.0433 37.106 97.9479 37.106H131.445C131.774 37.106 132.434 37.3039 132.434 38.0953V53.925C132.434 53.925 121.631 54.773 114.696 54.773C107.761 54.773 96.9585 53.925 96.9585 53.925Z" fill="#F40C34"/>
</svg>
